<?xml version="1.0" encoding="UTF-8"?>
<svg version="1.1" viewBox="0 0 288 288" xmlns="http://www.w3.org/2000/svg">
<g>
<svg width="288" height="288" fill="#fff" viewBox="-16 0 480 480" xmlns="http://www.w3.org/2000/svg">
<path class="color000 svgShape" d="m440 224h-72v-184c-0.027344-22.082-17.918-39.973-40-40h-264c-17.672 0-32 14.328-32 32v96h-24c-4.418 0-8 3.582-8 8v48c0 4.418 3.582 8 8 8h24v88c0 4.418 3.582 8 8 8h40v160c0 17.672 14.328 32 32 32h264c17.672 0 32-14.328 32-32s-14.328-32-32-32h-8v-128h72c4.418 0 8-3.582 8-8v-48c0-4.418-3.582-8-8-8zm-392-192c0-8.8359 7.1641-16 16-16s16 7.1641 16 16v96h-32zm-32 112h224c4.0234 0 7.4219-2.9844 7.9375-6.9766l27.566 22.977-27.566 22.977c-0.51562-3.9922-3.9141-6.9766-7.9375-6.9766h-224zm32 128v-80h32v80zm344 176c0 8.8359-7.1641 16-16 16h-236.3c2.8242-4.8594 4.3047-10.379 4.2969-16v-16h232c8.8359 0 16 7.1641 16 16zm-40-32h-216c-4.418 0-8 3.582-8 8v24c0 8.8359-7.1641 16-16 16s-16-7.1641-16-16v-256h136v8c0 3.1055 1.7969 5.9336 4.6094 7.25s6.1328 0.88672 8.5195-1.1055l48-40c1.8203-1.5195 2.875-3.7695 2.875-6.1445s-1.0547-4.625-2.875-6.1445l-48-40c-2.3867-1.9922-5.707-2.4219-8.5195-1.1055s-4.6094 4.1445-4.6094 7.25v8h-136v-96c-0.027344-5.6328-1.5586-11.156-4.4336-16h236.43c13.254 0 24 10.746 24 24v184h-136v-8c0-3.1055-1.7969-5.9336-4.6094-7.25s-6.1328-0.88672-8.5195 1.1055l-48 40c-1.8203 1.5195-2.875 3.7695-2.875 6.1445s1.0547 4.625 2.875 6.1445l48 40c2.3867 1.9922 5.707 2.4219 8.5195 1.1055s4.6094-4.1445 4.6094-7.25v-8h136zm80-144h-224c-1.0312 0.003906-2.0508 0.21094-3 0.60938-0.29297 0.15234-0.57422 0.32422-0.84766 0.51172-0.57422 0.29688-1.1133 0.66016-1.6016 1.0859-0.25781 0.28906-0.49609 0.59375-0.71094 0.91406-0.39062 0.44922-0.72266 0.94141-1 1.4727-0.15625 0.375-0.27734 0.76562-0.36719 1.168-0.16797 0.39062-0.30078 0.79688-0.39453 1.2148l-27.582-22.977 27.566-22.977c0.09375 0.41797 0.22656 0.82422 0.39453 1.2148 0.085938 0.40234 0.21094 0.79297 0.36719 1.168 0.27344 0.53125 0.60938 1.0234 1 1.4727 0.21484 0.32031 0.45312 0.625 0.71094 0.91406 0.48828 0.42578 1.0273 0.78906 1.6016 1.0859 0.27344 0.1875 0.55469 0.35938 0.84766 0.51172 0.95312 0.40234 1.9805 0.60938 3.0156 0.60938h224z"/>
<path class="color000 svgShape" d="m128 48h80v16h-80zm0 32h80v16h-80zm32 272h160v16h-160zm0 32h160v16h-160zm112-64h48v16h-48z"/>
</svg>
</g>
</svg>
